<?xml version="1.0" encoding="UTF-8"?>
<!DOCTYPE svg PUBLIC "-//W3C//DTD SVG 1.0//EN" "http://www.w3.org/TR/2001/REC-SVG-20010904/DTD/svg10.dtd">
<!-- Creator: CorelDRAW 2019 (64-Bit) -->
<svg xmlns="http://www.w3.org/2000/svg" xml:space="preserve" width="0.5in" height="0.453274in" version="1.0" style="shape-rendering:geometricPrecision; text-rendering:geometricPrecision; image-rendering:optimizeQuality; fill-rule:evenodd; clip-rule:evenodd"
viewBox="0 0 54.92 49.79"
 xmlns:xlink="http://www.w3.org/1999/xlink"
 xmlns:xodm="http://www.corel.com/coreldraw/odm/2003">
 <defs>
  <style type="text/css">
   <![CDATA[
    .fil0 {fill:#FEFEFE}
   ]]>
  </style>
 </defs>
 <g id="Layer_x0020_1">
  <metadata id="CorelCorpID_0Corel-Layer"/>
  <g id="_2341809197472">
   <path class="fil0" d="M20.53 10.82c2.11,-0.09 6.77,-0.2 8.71,0.16 2.36,0.44 3.65,2.21 3.58,4.99 -0.15,6.03 -6.93,4.99 -12.34,4.98l0.05 -10.13zm18.93 24.38l0.04 -0.51c-0.99,-0.72 0.33,-0.42 -1.83,-0.87 -0.89,-0.19 -1.51,-0.6 -1.99,-1.07l-5.2 -6.66c-0.78,-0.98 -1.96,-2.32 -2.5,-3.29 3.68,-0.26 6.24,-0.92 7.9,-3.57 1.72,-2.76 1.02,-6.66 -0.94,-8.43 -2.36,-2.13 -5.77,-2.06 -9.47,-2.06 -3.67,-0 -8.07,-0.2 -11.65,0.04l0.04 1.61c3.6,-0.07 3.21,0.81 3.22,4.16l-0 15.14c-0.03,3.51 0.46,4.27 -3.27,4.29l-0 1.62 9.84 0.02 0.01 -1.6c-3.43,-0.27 -3.13,-0.51 -3.17,-4.13 -0.02,-2.25 -0.1,-4.9 0.06,-7.11l3.25 -0.02 7 9.58c2.92,3.95 1.44,3.27 5.72,3.27 0.83,0 1.65,0.11 2.36,-0.11l0.26 -0.11c1.41,-0.61 -1.07,0.12 0.33,-0.17z"/>
   <path class="fil0" d="M0.99 0.9l53.06 -0.04 0 47.96 -26.76 0.02c-0.65,0.15 -0.39,-0.15 -0.62,0.45 0.02,0.75 1.44,0.41 3.08,0.41l25.16 0.01 0 -49.7 -54.84 -0.02c0.05,2.45 -0.31,21.7 0.2,22.19 1.09,1.04 0.68,-2.95 0.68,-4.59 0,-5.05 -0.18,-12.09 0.03,-16.69z"/>
   <path class="fil0" d="M1.73 1.84c-0.02,2.16 -0.26,19.93 0.18,20.35 0.93,0.88 0.7,-1.21 0.69,-1.73l0.03 -17.76 49.57 0.03 -0.03 44.03c-4.08,0.26 -8.86,0.04 -13.01,0.04l-9.82 0c-1.79,-0.01 -2.68,-0.33 -2.67,0.45 0.24,0.56 -0.01,0.29 0.62,0.42l25.78 0 0.01 -45.83 -51.36 -0z"/>
   <path class="fil0" d="M39.5 34.69l-0.04 0.51c1.56,1.43 3.29,3.12 6.08,3.45 2.83,0.33 3.04,-0.59 4.93,-4.3 -5.76,2.1 -6.52,0.99 -10.96,0.34z"/>
   <path class="fil0" d="M46.9 40.93c-3.63,-0.58 -4.15,-2.35 -6.11,-3.2 0.15,0.7 3.38,6.32 3.9,6.92 0.76,-0.45 1.9,-2.93 2.21,-3.72z"/>
  </g>
 </g>
</svg>
