<?xml version="1.0" encoding="UTF-8"?>
<!DOCTYPE svg PUBLIC "-//W3C//DTD SVG 1.0//EN" "http://www.w3.org/TR/2001/REC-SVG-20010904/DTD/svg10.dtd">
<!-- Creator: CorelDRAW 2019 (64-Bit) -->
<svg xmlns="http://www.w3.org/2000/svg" xml:space="preserve" width="0.551542in" height="0.5in" version="1.0" style="shape-rendering:geometricPrecision; text-rendering:geometricPrecision; image-rendering:optimizeQuality; fill-rule:evenodd; clip-rule:evenodd"
viewBox="0 0 1628.99 1476.76"
 xmlns:xlink="http://www.w3.org/1999/xlink"
 xmlns:xodm="http://www.corel.com/coreldraw/odm/2003">
 <defs>
  <style type="text/css">
   <![CDATA[
    .fil1 {fill:#FEFEFE}
    .fil0 {fill:#9A6C04}
    .fil2 {fill:#A7144A}
   ]]>
  </style>
 </defs>
 <g id="Layer_x0020_1">
  <metadata id="CorelCorpID_0Corel-Layer"/>
  <g id="_1405500684128">
   <path class="fil0" d="M608.82 320.96c62.54,-2.69 200.88,-6.04 258.44,4.71 69.99,13.08 108.17,65.66 106.18,147.86 -4.33,178.73 -205.46,148.09 -366.05,147.8l1.43 -300.38zm561.54 723.1l1.27 -15.16c-29.34,-21.47 9.93,-12.55 -54.32,-25.87 -26.5,-5.5 -44.89,-17.73 -59.02,-31.81l-154.34 -197.67c-23.05,-29.2 -58.13,-68.81 -74.23,-97.72 109.19,-7.6 184.97,-27.15 234.23,-105.91 51.14,-81.74 30.24,-197.66 -27.9,-250.06 -70.05,-63.14 -171.11,-61.21 -280.87,-61.22 -108.88,-0 -239.39,-6.06 -345.55,1.07l1.24 47.72c106.67,-1.95 95.24,24.12 95.51,123.53l-0.04 448.94c-0.83,103.98 13.63,126.56 -96.88,127.31l-0.12 48.14 291.73 0.72 0.37 -47.55c-101.77,-7.89 -92.94,-15.05 -93.98,-122.55 -0.65,-66.85 -2.84,-145.21 1.73,-210.98l96.48 -0.49 207.51 284.21c86.62,117.04 42.59,96.96 169.64,97.1 24.71,0.03 48.95,3.25 69.95,-3.34l7.86 -3.39c41.88,-18.22 -31.77,3.54 9.76,-5.04z"/>
   <path class="fil1" d="M29.28 26.81l1573.89 -1.21 0.09 1422.57 -793.66 0.68c-19.39,4.35 -11.57,-4.38 -18.27,13.5 0.54,22.1 42.83,12.2 91.25,12.19l746.38 0.16 0.03 -1474.2 -1626.7 -0.5c1.49,72.64 -9.23,643.69 6.05,658.23 32.44,30.87 20.2,-87.38 20.2,-136.25 0,-149.74 -5.45,-358.49 0.75,-495.17z"/>
   <path class="fil1" d="M51.36 54.69c-0.6,64.17 -7.66,591.19 5.33,603.57 27.44,26.17 20.82,-35.81 20.52,-51.2l1.01 -526.68 1470.27 0.86 -0.82 1305.96c-121.03,7.63 -262.73,1.16 -386.01,1.16l-291.21 0c-53.19,-0.15 -79.55,-9.73 -79.22,13.32 7.14,16.56 -0.23,8.71 18.45,12.45l764.69 0.08 0.32 -1359.44 -1523.32 -0.09z"/>
   <path class="fil2" d="M1171.63 1028.9l-1.27 15.16c46.38,42.39 97.65,92.57 180.4,102.25 84.07,9.82 90.03,-17.51 146.09,-127.43 -170.9,62.25 -193.46,29.3 -325.23,10.02z"/>
   <path class="fil2" d="M1391.04 1213.97c-107.55,-17.32 -122.95,-69.69 -181.3,-94.99 4.38,20.72 100.12,187.58 115.74,205.35 22.5,-13.24 56.21,-86.81 65.57,-110.37z"/>
  </g>
 </g>
</svg>
