<?xml version="1.0" encoding="UTF-8"?>
<!DOCTYPE svg PUBLIC "-//W3C//DTD SVG 1.0//EN" "http://www.w3.org/TR/2001/REC-SVG-20010904/DTD/svg10.dtd">
<!-- Creator: CorelDRAW 2019 (64-Bit) -->
<svg xmlns="http://www.w3.org/2000/svg" xml:space="preserve" width="0.275771in" height="0.25in" version="1.0" style="shape-rendering:geometricPrecision; text-rendering:geometricPrecision; image-rendering:optimizeQuality; fill-rule:evenodd; clip-rule:evenodd"
viewBox="0 0 804.37 729.2"
 xmlns:xlink="http://www.w3.org/1999/xlink"
 xmlns:xodm="http://www.corel.com/coreldraw/odm/2003">
 <defs>
  <style type="text/css">
   <![CDATA[
    .fil0 {fill:#FEFEFE}
   ]]>
  </style>
 </defs>
 <g id="Layer_x0020_1">
  <metadata id="CorelCorpID_0Corel-Layer"/>
  <g id="_2341945419728">
   <path class="fil0" d="M300.63 158.49c30.88,-1.33 99.19,-2.98 127.62,2.33 34.56,6.46 53.41,32.42 52.43,73.01 -2.14,88.26 -101.45,73.13 -180.75,72.98l0.71 -148.32zm277.28 357.06l0.63 -7.49c-14.49,-10.6 4.9,-6.2 -26.82,-12.77 -13.09,-2.71 -22.17,-8.76 -29.15,-15.71l-76.21 -97.6c-11.38,-14.42 -28.71,-33.98 -36.65,-48.25 53.92,-3.75 91.33,-13.41 115.66,-52.3 25.25,-40.37 14.93,-97.6 -13.78,-123.48 -34.59,-31.18 -84.49,-30.22 -138.69,-30.23 -53.76,-0 -118.21,-2.99 -170.63,0.53l0.62 23.56c52.67,-0.96 47.03,11.91 47.16,61l-0.02 221.69c-0.41,51.34 6.73,62.49 -47.84,62.86l-0.06 23.77 144.05 0.36 0.18 -23.48c-50.25,-3.9 -45.9,-7.43 -46.41,-60.51 -0.32,-33.01 -1.4,-71.7 0.85,-104.18l47.64 -0.24 102.47 140.34c42.77,57.79 21.03,47.88 83.77,47.95 12.2,0.01 24.17,1.6 34.54,-1.65l3.88 -1.67c20.68,-9 -15.69,1.75 4.82,-2.49z"/>
   <path class="fil0" d="M14.46 13.24l777.17 -0.59 0.04 702.45 -391.9 0.34c-9.57,2.14 -5.71,-2.17 -9.02,6.66 0.27,10.91 21.15,6.03 45.06,6.02l368.55 0.08 0.01 -727.94 -803.25 -0.24c0.73,35.87 -4.56,317.85 2.99,325.03 16.02,15.25 9.98,-43.15 9.98,-67.28 0,-73.94 -2.69,-177.02 0.37,-244.51z"/>
   <path class="fil0" d="M25.36 27c-0.3,31.69 -3.78,291.92 2.63,298.04 13.55,12.92 10.28,-17.68 10.13,-25.28l0.5 -260.07 726.01 0.42 -0.41 644.87c-59.76,3.77 -129.73,0.57 -190.61,0.57l-143.8 0c-26.27,-0.08 -39.28,-4.81 -39.12,6.57 3.52,8.18 -0.11,4.3 9.11,6.15l377.6 0.04 0.16 -671.28 -752.2 -0.04z"/>
   <path class="fil0" d="M578.54 508.06l-0.63 7.49c22.9,20.94 48.22,45.71 89.08,50.49 41.51,4.85 44.45,-8.65 72.14,-62.93 -84.39,30.74 -95.53,14.47 -160.59,4.95z"/>
   <path class="fil0" d="M686.88 599.44c-53.11,-8.56 -60.71,-34.41 -89.53,-46.9 2.16,10.23 49.44,92.62 57.15,101.4 11.11,-6.54 27.75,-42.87 32.38,-54.5z"/>
  </g>
 </g>
</svg>
